<svg xmlns="http://www.w3.org/2000/svg" viewBox="0 0 89.49 24" height="24" width="90"><path d="M13 13h5.48l-2.71-6.83zM89.49 0H75.43L72 3.77 68.91 0H39.09l-2.75 6.17L33.6 0h-12v2.74L20.23 0H9.94L0 24h12l1.37-3.77h3.43L18.17 24h13.37v-2.74l1 2.74h6.86l1-3.09V24h27.49l3.42-3.77L74.4 24h14.06l-8.92-12zM48 20.57h-3.77V7.2L38.4 20.57H35L29.14 7.2v13.37h-7.88l-1.37-3.77h-8.23l-1.37 3.77H5.83L13 3.43h5.83l6.51 16.11V3.43h6.52L37 15.09l4.8-11.66h6.51v17.14zm33.94 0H76.8l-4.46-5.83-5.14 5.83H51.77V3.43h15.77l4.8 5.48 5.15-5.48h4.8L74.74 12zM55.54 6.86v3.08h8.57v3.43h-8.57v3.43h9.6l4.46-5.14-4.11-4.8z"/></svg>