<svg xmlns="http://www.w3.org/2000/svg" viewBox="0 0 24 24" width="24" height="24"><path d="M23.7 10.7c0 1.4-.2 2.6-.6 3.8-.4 1.1-1 2-1.8 2.7-.8.6-1.7.9-2.7.9-.8 0-1.5-.3-2.1-.8-.6-.5-.9-1.2-1-1.9h-.1c-.4.8-.9 1.5-1.7 2-.7.5-1.6.7-2.6.7-1.5 0-2.6-.5-3.4-1.5-.8-1-1.2-2.3-1.2-4.1 0-2 .6-3.6 1.7-4.8 1.1-1.2 2.7-1.9 4.5-1.9.7 0 1.4.1 2.2.2.8.1 1.6.3 2.3.5l-.4 6.9v.3c0 1.7.6 2.6 1.9 2.6.9 0 1.6-.5 2.2-1.6.6-1 .8-2.4.8-4.1 0-1.8-.4-3.3-1.1-4.6-.7-1.3-1.7-2.3-3.1-3.1-1.3-.7-2.9-1.1-4.6-1.1-2.2 0-4.1.4-5.7 1.3s-2.7 2.3-3.6 4c-.8 1.7-1.3 3.6-1.3 5.8 0 3 .8 5.2 2.3 6.8 1.6 1.6 3.8 2.4 6.8 2.4 2 0 4.2-.4 6.4-1.3v1.9c-1.9.8-4 1.2-6.4 1.2-3.5 0-6.3-1-8.2-2.9C1.3 19.1.3 16.4.3 12.9c0-2.5.5-4.8 1.6-6.8 1-2 2.5-3.5 4.4-4.6C8.3.5 10.5 0 13 0c2.1 0 3.9.4 5.6 1.3 1.6.9 2.9 2.1 3.8 3.7.8 1.7 1.3 3.5 1.3 5.7zM8.6 12.6c0 2.5.9 3.7 2.8 3.7 2 0 3.1-1.5 3.3-4.6l.2-3.8c-.7-.2-1.5-.3-2.3-.3-1.3 0-2.3.4-3 1.3-.7.9-1 2.1-1 3.7z"/></svg>