<svg xmlns="http://www.w3.org/2000/svg" width="24" height="24" viewBox="0 0 32 32"><path d="M30,0H10.35C9.896,0,9.455,0.155,9.101,0.438l-8.35,6.68C0.276,7.498,0,8.072,0,8.68V30c0,1.105,0.895,2,2,2 h21.031c0.594,0,1.156-0.264,1.536-0.72l6.969-8.362c0.3-0.359,0.464-0.813,0.464-1.28V2C32,0.895,31.105,0,30,0z M22,30H2V10h20V30 z M22.586,8H2.852l7.5-6h18.234L22.586,8z M30,21.638l-6,7.2V9.414l6-6V21.638z M4,17v-4c0-0.552,0.448-1,1-1h6c0.552,0,1,0.448,1,1 v4c0,0.552-0.448,1-1,1H5C4.448,18,4,17.552,4,17z"></path></svg>