<svg xmlns="http://www.w3.org/2000/svg" width="24" height="24" viewBox="0 0 32 32"><path d="M16,0C10.477,0,6,4.477,6,10c0,2.226,0.738,4.269,1.975,5.922c1.13,1.51,1.815,3.3,1.984,5.166 c0.047,0.516,0.478,0.909,0.996,0.909h10.09c0.517,0,0.95-0.394,0.996-0.909c0.168-1.869,0.851-3.65,1.984-5.165 C25.262,14.269,26,12.226,26,10C26,4.477,21.523,0,16,0z M22.423,14.724c-1.18,1.576-1.945,3.372-2.26,5.276h-8.332 c-0.321-1.901-1.094-3.725-2.255-5.276C8.545,13.345,8,11.712,8,10c0-4.411,3.589-8,8-8s8,3.589,8,8 C24,11.712,23.455,13.345,22.423,14.724z M10,28.5c0-0.276,0.224-0.5,0.5-0.5h11c0.276,0,0.5,0.224,0.5,0.5v1 c0,0.276-0.224,0.5-0.5,0.5H20v1.5c0,0.276-0.224,0.5-0.5,0.5h-7c-0.276,0-0.5-0.224-0.5-0.5V30h-1.5c-0.276,0-0.5-0.224-0.5-0.5 V28.5z M10,25.5v-1c0-0.276,0.224-0.5,0.5-0.5h11c0.276,0,0.5,0.224,0.5,0.5v1c0,0.276-0.224,0.5-0.5,0.5h-11 C10.224,26,10,25.776,10,25.5z M28,8.5C28,8.224,28.224,8,28.5,8h3C31.776,8,32,8.224,32,8.5v1c0,0.276-0.224,0.5-0.5,0.5h-3 C28.224,10,28,9.776,28,9.5V8.5z M5.691,3.559C5.546,3.794,5.238,3.867,5.003,3.722L2.449,2.147 C2.214,2.002,2.141,1.694,2.286,1.459l0.525-0.851C2.956,0.373,3.264,0.3,3.499,0.445L6.052,2.02 c0.235,0.145,0.308,0.453,0.163,0.688L5.691,3.559z M26.997,3.722c-0.235,0.145-0.543,0.072-0.688-0.163l-0.525-0.851 c-0.145-0.235-0.072-0.543,0.163-0.688l2.554-1.575c0.235-0.145,0.543-0.072,0.688,0.163l0.525,0.851 c0.145,0.235,0.072,0.543-0.163,0.688L26.997,3.722z M4.465,14.78c0.243-0.131,0.546-0.041,0.678,0.202l0.476,0.879 c0.131,0.243,0.041,0.546-0.202,0.678l-2.638,1.428c-0.243,0.131-0.546,0.041-0.678-0.202l-0.476-0.879 c-0.131-0.243-0.041-0.546,0.202-0.678L4.465,14.78z M26.857,14.982c0.131-0.243,0.435-0.333,0.678-0.202l2.638,1.428 c0.243,0.131,0.333,0.435,0.202,0.678l-0.476,0.879c-0.131,0.243-0.435,0.333-0.678,0.202l-2.638-1.428 c-0.243-0.131-0.333-0.435-0.202-0.678L26.857,14.982z M4,9.5C4,9.776,3.776,10,3.5,10h-3C0.224,10,0,9.776,0,9.5v-1 C0,8.224,0.224,8,0.5,8h3C3.776,8,4,8.224,4,8.5V9.5z"></path></svg>