<svg xmlns="http://www.w3.org/2000/svg" viewBox="0 0 111.7 24" height="24" width="112"><path d="M81.5 21.4h-2.3V9.7s.1 0 .1-.1c.7-.3 1.4-.4 2.1-.5.7-.1 1.3-.1 2-.1.9 0 1.6.2 2.4.6 1 .6 1.6 1.5 1.9 2.6.2 1.1.2 2.1-.2 3.2-.5 1.2-1.4 2-2.6 2.4-.7.2-1.3.2-2 .2h-.1v-2h.4c.3 0 .6-.1.9-.3.5-.3.9-.7 1.1-1.2.2-.6.2-1.1.1-1.7-.2-.9-.8-1.4-1.6-1.6-.4-.1-.8-.1-1.1-.1-.3 0-.6.1-.9.1-.2.1-.2.1-.2.2v10zM37.7 17.9h-2.3V5.3h2.3v4.2h.1c.8-.4 1.6-.5 2.3-.5.4 0 .7.1 1.1.2 1 .3 1.6 1 1.9 2 .1.4.2.9.2 1.3V18H41v-.2-5-.5c-.1-.6-.5-.9-1.1-1h-.8c-.4 0-.7.1-1.1.2-.2 0-.2 0-.2.2v6.2c-.1-.2-.1-.1-.1 0zM78.2 13.3c0 .9-.1 1.6-.4 2.2-.5 1-1.3 1.8-2.4 2.2-1.2.4-2.3.4-3.5 0-1.4-.6-2.3-1.6-2.7-3.1-.2-.9-.2-1.9.1-2.8.5-1.5 1.6-2.4 3.1-2.8 1-.3 2-.2 3 .2 1.4.6 2.3 1.6 2.6 3.1.1.5.2.9.2 1zm-2.4.2c0-.4-.1-.7-.2-1.1-.2-.6-.7-1.1-1.3-1.3-.4-.1-.9-.1-1.3 0-.7.2-1.2.7-1.4 1.3-.2.6-.2 1.2-.1 1.9 0 .2.1.4.2.5.4.8 1.1 1.2 2 1.2.8 0 1.5-.4 1.8-1.2.2-.4.3-.8.3-1.3zM50 13.6c0-.8.1-1.5.5-2.1.5-1 1.3-1.7 2.4-2.1 1.2-.4 2.4-.4 3.6 0 1.4.6 2.3 1.6 2.6 3.1.2 1 .2 1.9-.2 2.8-.6 1.4-1.6 2.3-3.1 2.7-1 .2-2 .2-2.9-.2-1.4-.6-2.3-1.6-2.7-3.1-.1-.4-.2-.8-.2-1.1zm6.8-.1c0-.4-.1-.8-.2-1.1-.4-1-1.3-1.6-2.4-1.4-.8.1-1.3.6-1.6 1.3-.3.7-.3 1.4-.1 2.2.3 1 1.1 1.6 2.1 1.5.9 0 1.5-.5 1.9-1.3.2-.3.2-.8.3-1.2zM88.8 13.6c0-.9.2-1.7.6-2.4.5-.9 1.3-1.6 2.3-1.9 1.2-.4 2.4-.4 3.6 0 1.4.6 2.3 1.6 2.6 3.1.2 1 .2 2-.2 2.9-.6 1.4-1.6 2.2-3.1 2.6-1 .2-2 .2-2.9-.2-1.5-.6-2.3-1.6-2.7-3.1-.2-.3-.2-.7-.2-1zm2.3-.1c0 .3 0 .6.1.9.3 1.2 1.3 1.8 2.5 1.6.8-.1 1.3-.6 1.5-1.3.3-.7.3-1.4.1-2.1-.3-1-1.1-1.6-2.2-1.6-.9 0-1.5.5-1.9 1.3 0 .4-.1.8-.1 1.2zM65.7 17.8v-.2-5.1c0-.2 0-.4-.1-.6-.2-.5-.5-.7-1-.8-.3-.1-.6 0-.9 0-.3 0-.7.1-1 .2-.2 0-.2 0-.2.2v6.4h-2.3v-.2V15 9.9v-.1c0-.1 0-.1.1-.2.4-.1.8-.3 1.2-.4 1-.3 2.1-.4 3.1-.4.5 0 1.1.1 1.6.3.9.3 1.5 1 1.7 2 .1.4.1.8.1 1.2V17.7c0 .2-2.1.2-2.3.1zM106.2 6h2.3v3.2h3v1.9H108.4V14.4c0 .2 0 .4.1.6.1.5.5.7.9.9.3.1.6.1.9 0 .4 0 .8-.1 1.2-.2v2.1c-.2 0-.3.1-.5.1-.5.1-1 .1-1.6.1-.5 0-.9-.1-1.4-.2-1.1-.3-1.8-1-2-2.2-.1-.3-.1-.7-.1-1.1V6c.3.1.3 0 .3 0zM98.8 15.1s.1 0 .1.1c.7.4 1.4.7 2.2.8.4 0 .7.1 1 0 .1 0 .1 0 .2-.1.2-.1.4-.3.4-.6s-.1-.5-.3-.7c-.2-.1-.4-.2-.6-.2-.3-.1-.7-.1-1-.2-.3-.1-.6-.2-.9-.4-.6-.3-1-.9-1.2-1.6-.1-.5-.1-1 0-1.5.2-.7.6-1.2 1.2-1.5.4-.2.8-.3 1.3-.4.7-.1 1.4-.1 2.1.1.4.1.8.2 1.1.4.1 0 .1.1.1.2V11.4c-.1 0-.1-.1-.1-.1-.5-.3-.9-.5-1.5-.6-.4-.1-.8-.1-1.2-.1-.2 0-.3.1-.5.2-.4.3-.4.8 0 1.1.1.1.3.2.4.2.3.1.6.1.9.2.4.1.8.2 1.1.4.2.1.4.2.5.3.5.3.8.8.9 1.3.1.5.1 1 0 1.5-.2.7-.6 1.3-1.3 1.6-.4.2-.7.3-1.1.3-1 .1-2 .1-2.9-.2-.3-.1-.5-.2-.8-.3-.1 0-.1-.1-.1-.2v-1.9c0 .1 0 .1 0 0zM34.1 11.8c-.1 0-.1-.1-.1-.1-.5-.3-1-.6-1.5-.6-.5-.1-1-.1-1.4 0-.9.3-1.4.9-1.6 1.8-.1.4-.1.9 0 1.3.2.9.8 1.5 1.8 1.7 1 .2 1.9 0 2.7-.5.1 0 .1-.1.2-.2v2c0 .1 0 .1-.1.2-.5.3-1 .4-1.6.5-.6.1-1.3.1-1.9-.1-1.2-.2-2.1-.8-2.8-1.8-.3-.5-.5-1.1-.6-1.7-.2-.6-.2-1.3 0-2.1.5-1.7 1.5-2.7 3.2-3.1.9-.2 1.8-.2 2.7.1.3.1.6.2.8.4.1 0 .1.1.1.2v2c.1-.1.1-.1.1 0zM47 17.8h-2.3v-.2-5.3c0-.4 0-.8.1-1.2.3-1 .9-1.7 1.9-2 .3 0 .7-.1 1-.1.8-.1 1.5 0 2.3.1h.1v2.1H50c-.6-.2-1.1-.2-1.7-.2-.2 0-.3 0-.5.1-.4.1-.7.5-.8.9 0 .2-.1.4-.1.5v5c.1.2.1.3.1.3z"/><path fill="#08c" d="M14.3 10.7c-.1.1-.2.1-.3 0l-.6-.3c-.1-.1-.2-.2-.2-.3v-.7c0-.1.1-.2.2-.3l6.7-3.9L10.8.1c-.3-.1-.6-.1-.9 0L.5 5.2 11 11.3c.1.1.2.2.2.3v8.9c0 .1-.1.3-.2.3l-.5.3c-.1.1-.3.1-.4 0l-.5-.3c-.1-.1-.2-.2-.2-.3v-7.8c0-.1-.1-.3-.2-.3L0 7v10.5c0 .3.2.6.5.8l9.4 5.5c.3.2.7.2 1 0l9.3-5.5c.3-.2.5-.5.5-.8V7l-6.4 3.7z"/></svg>