<svg xmlns="http://www.w3.org/2000/svg" width="24" height="24" viewBox="0 0 32 32"><path d="M17.414,16l7.425,7.425c0.195,0.195,0.195,0.512,0,0.707l-0.707,0.707c-0.195,0.195-0.512,0.195-0.707,0 L16,17.414l-7.425,7.425c-0.195,0.195-0.512,0.195-0.707,0l-0.707-0.707c-0.195-0.195-0.195-0.512,0-0.707L14.586,16L7.161,8.575 c-0.195-0.195-0.195-0.512,0-0.707l0.707-0.707c0.195-0.195,0.512-0.195,0.707,0L16,14.586l7.425-7.425 c0.195-0.195,0.512-0.195,0.707,0l0.707,0.707c0.195,0.195,0.195,0.512,0,0.707L17.414,16z"></path></svg>