<svg xmlns="http://www.w3.org/2000/svg" width="24" height="24" viewBox="0 0 32 32"><path d="M12.531,13.598c-0.103,0.066-0.235,0.064-0.335-0.006c-0.1-0.07-0.148-0.194-0.12-0.313l0.688-2.987 l-2.242-2.006c-0.089-0.08-0.123-0.206-0.084-0.319c0.038-0.114,0.141-0.194,0.26-0.203l2.921-0.236l1.103-2.815 C14.766,4.598,14.877,4.522,15,4.522s0.234,0.076,0.279,0.191l1.103,2.815l2.921,0.236c0.12,0.01,0.222,0.09,0.26,0.203 c0.038,0.114,0.005,0.239-0.084,0.319l-2.242,2.006l0.688,2.987c0.027,0.119-0.02,0.243-0.12,0.313s-0.233,0.073-0.335,0.006L15,12 L12.531,13.598z M0.044,5.083c-0.023-0.279,0.071-0.554,0.261-0.76C0.494,4.117,0.761,4,1.041,4h3.515 c-0.15-0.884-0.265-1.666-0.351-2.298C4.146,1.273,4.278,0.839,4.563,0.513C4.848,0.187,5.26,0,5.693,0h18.614 c0.433,0,0.846,0.187,1.131,0.513s0.416,0.76,0.357,1.189C25.709,2.334,25.594,3.116,25.444,4h3.515 c0.279,0,0.546,0.118,0.735,0.324c0.189,0.206,0.284,0.481,0.261,0.759c-0.412,5.007-3.656,9.259-8.234,11.403 c-1.009,1.968-2.234,3.623-3.721,4.59V26h3c0.552,0,1,0.448,1,1v4c0,0.552-0.448,1-1,1H9c-0.552,0-1-0.448-1-1v-4 c0-0.552,0.448-1,1-1h3v-4.923c-1.49-0.969-2.717-2.628-3.727-4.601C3.699,14.332,0.456,10.086,0.044,5.083z M16,28v-6.106 C15.676,21.957,15.345,22,15,22s-0.676-0.043-1-0.106V28h-4v2h10v-2H16z M23.068,13.367c2.458-1.802,4.208-4.391,4.751-7.367h-2.744 C24.621,8.271,23.97,10.901,23.068,13.367z M6.253,2C7.246,9.006,10.174,20,15,20c4.834,0,7.759-10.994,8.749-18H6.253z M2.181,6 c0.545,2.984,2.293,5.59,4.761,7.393C6.035,10.919,5.38,8.279,4.924,6H2.181z"></path></svg>