<svg xmlns="http://www.w3.org/2000/svg" viewBox="0 0 112.2 24" height="24" width="112"><style>.st0{fill:none;stroke:#626769;stroke-width:.5668;stroke-miterlimit:10}.st1{fill:#0174c3}</style><path class="st0" d="M839 1340.9"/><path class="st1" d="M25.3 11.9c0-2.1.6-3.8 1.7-5C28.1 5.6 29.6 5 31.3 5c.6 0 1.1.1 1.6.2s.9.3 1.2.5c.3.2.5.4.8.6l.5.5V7h.1c0-.3-.1-.6-.1-.9V0H38v18.5h-2.4v-2.2h-.1c0 .1-.1.2-.1.3-.1.1-.2.3-.4.6s-.5.5-.8.8c-.3.2-.7.4-1.2.6-.5.2-1.1.3-1.7.3-1.8 0-3.2-.6-4.3-1.9-1.1-1.4-1.7-3-1.7-5.1zm2.6 0c0 1.4.3 2.6 1 3.4.7.9 1.6 1.3 2.7 1.3s2-.4 2.7-1.2c.7-.8 1.1-2 1.1-3.6 0-1.3-.3-2.4-1-3.3-.7-.9-1.6-1.4-2.8-1.4-1.1 0-2 .4-2.7 1.3-.6.9-1 2-1 3.5zM40.1 2.6V0h2.6v2.6h-2.6zm0 15.9V5.3h2.5v13.2h-2.5zM46.5 20.9c1.1.6 2.3.9 3.6.9 1.3 0 2.3-.3 3-.9.8-.6 1.2-1.5 1.2-2.8v-1.8h-.1c-.8 1.4-2.1 2.1-3.9 2.1-1.8 0-3.2-.6-4.3-1.9-1.1-1.3-1.6-2.9-1.6-4.9 0-2 .5-3.5 1.5-4.8 1-1.2 2.4-1.8 4.2-1.8.6 0 1.1.1 1.6.2s.9.3 1.2.5c.3.2.5.4.8.6.2.2.3.4.4.5l.1.2h.1V5.3h2.4V18c0 1-.2 2-.6 2.8-.4.8-.9 1.4-1.5 1.9s-1.4.8-2.1 1c-.8.2-1.6.3-2.5.3-1.6 0-3.1-.4-4.5-1.1l1-2zm4.4-4.7c1 0 1.9-.4 2.5-1.1.7-.7 1-1.9 1-3.5 0-3-1.2-4.4-3.7-4.4-1.1 0-2 .4-2.7 1.2-.6.8-1 1.8-1 3.2 0 1.4.3 2.5 1 3.4.8.7 1.7 1.2 2.9 1.2zM59 2.6V0h2.6v2.6H59zm0 15.9V5.3h2.5v13.2H59zM63.4 11.9c0-2 .7-3.6 2-4.9 1.3-1.3 3-2 5.1-2 1 0 1.9.2 2.7.5.8.3 1.4.7 1.8 1l.5.5-1.2 1.8c-.1-.1-.3-.2-.5-.4s-.6-.4-1.3-.7c-.6-.3-1.3-.4-1.9-.4-1.3 0-2.4.4-3.3 1.3-.9.9-1.3 2-1.3 3.4s.4 2.5 1.3 3.4c.9.9 2 1.4 3.4 1.4.7 0 1.4-.1 2.1-.4.7-.3 1.2-.6 1.5-.9l.5-.4 1 1.9-.2.2c-.1.1-.3.3-.6.5s-.7.5-1.1.6c-.4.2-.9.4-1.5.5-.6.2-1.2.2-1.9.2-2.1 0-3.8-.7-5.1-2-1.3-1.5-2-3.1-2-5.1zM76.1 11.9c0-2.1.6-3.7 1.9-5C79.2 5.6 80.8 5 82.7 5c1.8 0 3.2.6 4.2 1.8 1 1.2 1.5 2.7 1.5 4.4l-.1 1.1h-9.7c.1 1.4.5 2.5 1.4 3.2.9.8 1.9 1.1 3.2 1.1.7 0 1.3-.1 2-.4.7-.3 1.1-.5 1.5-.8l.5-.4 1 1.9c-.1.1-.3.3-.6.5s-.9.5-1.8.8c-.9.3-1.8.5-2.7.5-2.1 0-3.7-.7-5-2-1.4-1.2-2-2.8-2-4.8zm2.7-1.6h7.1c0-1.1-.4-1.9-1-2.5-.6-.5-1.3-.8-2.2-.8-1 0-1.8.3-2.6.9-.7.5-1.1 1.4-1.3 2.4zM90.3 18.5V5.3h2.5v2.3l-.1 1h.1c.3-1 .8-1.8 1.6-2.5.7-.6 1.6-1 2.6-1l.7.1v2.5c-.2-.1-.5-.1-.7-.1-.8 0-1.6.3-2.3.8-.7.6-1.2 1.3-1.5 2.3-.2.7-.3 1.5-.3 2.4v5.4h-2.6zM100.8 13.7V7.5h-1.7v-2h1.8V1.6h2.5v3.8h3.2v2h-3.2v5.9c0 .5.1.9.2 1.3s.3.7.5.9c.2.2.4.4.7.5.3.1.5.2.7.2.2 0 .4.1.7.1l.6-.1v2.3c-.2 0-.5.1-.9.1s-.8 0-1.2-.1c-.4-.1-.8-.2-1.3-.4s-.9-.5-1.3-.8c-.4-.3-.7-.8-.9-1.5-.3-.6-.4-1.3-.4-2.1zM109.6 0c-1.4 0-2.6 1.2-2.6 2.6 0 1.4 1.2 2.6 2.6 2.6 1.4 0 2.6-1.2 2.6-2.6 0-1.4-1.1-2.6-2.6-2.6m0 4.7c-1.2 0-2.1-.9-2.1-2.1 0-1.2.9-2.1 2.1-2.1 1.2 0 2.1.9 2.1 2.1 0 1.1-.9 2.1-2.1 2.1M23.4 13.8C23 9.5 20 6.5 17.7 3.4c1-1.4 3.2-1 4.7-.6-2-1.4-4.4-2.3-7-2.5C10.5.2 6.7 3 3.1 6.2c-2.2-.8-.7-3.1-.7-4.7C.6 4 0 6.9 0 9.8c.1 2.6 1.2 5.2 2.7 7.5 1.1 1.2 2.1 2.4 3.2 3.6-1 1.8-3.2 1-4.7.6C3.7 23.4 6.5 24 9.5 24c2.6-.1 5.2-1.2 7.4-2.7 1.2-1.1 2.4-2.1 3.6-3.2 1.1 1.2 1.3 3.2.6 4.7 1.9-2.5 2.6-5.6 2.3-9zm-3.5.1c-.9 1.1-2 2.5-2 2.5-1.1 1.3-2.1 1.9-2.5 2.2-1.5 1.2-3.4 1.8-5.2 1.9h-.4l-.1-.1-2.1-2.1c-.7-.8-1.3-1.2-2.1-2.5-1.1-1.6-1.8-3.4-1.9-5.2v-.7L5.7 8c2.5-2.2 5.2-4.1 8.5-4.2h.1L15.9 6c1.6 2.2 3.7 4.2 4 7.3 0 .1.1.6 0 .6z"/><path class="st1" d="M108.7 4V1.2h.9c.2 0 .4 0 .5.1.1.1.3.2.4.3.1.1.1.3.1.5s0 .3-.1.5c-.1.1-.2.2-.4.3 0 0 0 .1.1.1l.6 1.1h-.5l-.6-1.1h-.6v1h-.4zm.4-1.5h.6c.2 0 .3 0 .4-.1.1-.1.1-.2.1-.4s-.1-.4-.2-.4-.2-.1-.4-.1h-.5v1z"/></svg>