<svg xmlns="http://www.w3.org/2000/svg" width="24" height="24" viewBox="0 0 32 32"><path d="M9.434,0.868C9.341,0.682,9.351,0.461,9.46,0.285S9.763,0,9.971,0H13.4C13.731,0,14,0.269,14,0.6V2 l2.849-1.899C16.947,0.035,17.063,0,17.182,0h3.697c0.221,0,0.425,0.122,0.529,0.317c0.104,0.195,0.093,0.432-0.03,0.616L18,6h-6 L9.434,0.868z M15.386,32h-0.358h-0.056h-0.358C1.058,32,0.06,24,4.051,18C6.644,14.1,9.54,11.318,12,8h5.966 c2.459,3.318,5.39,6.1,7.984,10C29.94,24,28.942,32,15.386,32z M19.588,22.768c0-4.021-5.647-3.853-5.647-5.853 c0-0.947,0.556-1.347,1.582-1.347c0.791,0,1.401,0.278,2.06,0.819c0.155,0.128,0.383,0.11,0.517-0.039l1.101-1.229 c0.135-0.151,0.126-0.383-0.021-0.522c-0.78-0.739-1.699-1.3-2.929-1.47v-1.751c0-0.207-0.168-0.375-0.375-0.375h-1.324 c-0.207,0-0.375,0.168-0.375,0.375v1.793c-2.01,0.4-3.252,1.832-3.252,3.895c0,3.789,5.647,3.747,5.647,5.916 c0,0.968-0.534,1.452-1.731,1.452c-0.929,0-1.786-0.344-2.747-1c-0.083-0.057-0.185-0.078-0.284-0.058 c-0.099,0.02-0.185,0.078-0.241,0.162l-0.973,1.481c-0.107,0.163-0.071,0.381,0.083,0.501c0.991,0.772,2.344,1.242,3.498,1.378v1.73 c0,0.207,0.168,0.375,0.375,0.375h1.324c0.207,0,0.375-0.168,0.375-0.375V26.81C18.454,26.346,19.588,24.789,19.588,22.768z"></path></svg>