<svg xmlns="http://www.w3.org/2000/svg" width="24px" height="24px" viewBox="0 0 32 32"><path d="M4,0C1.791,0,0,1.791,0,4v24c0,2.209,1.791,4,4,4h13.092V19.608h-3.67c-0.276,0-0.5-0.224-0.5-0.5v-3.83 c0-0.276,0.224-0.5,0.5-0.5h3.67v-3.562c0-4.133,2.524-6.384,6.211-6.384c1.368,0,2.587,0.079,3.273,0.142 c0.258,0.024,0.454,0.239,0.454,0.498v3.37c0,0.276-0.224,0.5-0.5,0.5l-2.058,0.001c-2.005,0-2.393,0.953-2.393,2.351v3.083h4.214 c0.144,0,0.281,0.062,0.375,0.17s0.139,0.252,0.12,0.394l-0.494,3.83c-0.032,0.249-0.244,0.436-0.496,0.436h-3.72V32H28 c2.209,0,4-1.791,4-4V4c0-2.209-1.791-4-4-4H4z"></path></svg>