<svg xmlns="http://www.w3.org/2000/svg" width="24" height="24" viewBox="0 0 32 32"><path d="M28,2c1.105,0,2,0.895,2,2v24c0,1.105-0.895,2-2,2H4c-1.105,0-2-0.895-2-2V4c0-1.105,0.895-2,2-2H28z M4,0 C1.791,0,0,1.791,0,4v24c0,2.209,1.791,4,4,4h24c2.209,0,4-1.791,4-4V4c0-2.209-1.791-4-4-4H4z M28,24H4v2h24V24z M28,20H4v2h24V20z  M12.041,9.611l4.191,5.029c0.21,0.252,0.53,0.385,0.856,0.356s0.618-0.216,0.781-0.5L21.58,8H28V6h-7 c-0.359,0-0.69,0.192-0.868,0.504l-3.286,5.75L12.768,7.36c-0.196-0.235-0.488-0.367-0.794-0.36S11.384,7.156,11.2,7.4l-6.001,8 L6.801,16.6L12.041,9.611z"></path></svg>