<svg xmlns="http://www.w3.org/2000/svg" width="24px" height="24px" viewBox="0 0 32 32"><path d="M16,20h12v10c0,1.105-0.895,2-2,2H16V20z M14,32V20H2v10c0,1.105,0.895,2,2,2H14z M14,12h-0.156H2 c-1.105,0-2,0.895-2,2v4h14V12z M15.443,11.998l-0.385-0.002l-0.385,0.002c-3.586,0-11.992-0.367-12.588-3.775 c-0.615-3.514,2.213-7.57,5.709-8.189c2.958-0.537,5.884,5.64,7.264,9.1c1.381-3.46,4.307-9.637,7.264-9.1 c3.496,0.619,6.324,4.676,5.709,8.189C27.436,11.63,19.029,11.998,15.443,11.998z M13.243,9.974 c-1.598-4.008-3.877-7.977-5.057-7.977C5.731,2.429,3.629,5.451,4.053,7.878C4.235,8.908,8.376,9.822,13.243,9.974z M21.93,1.998 c-1.18,0-3.459,3.969-5.057,7.977c4.867-0.152,9.008-1.066,9.189-2.096C26.486,5.451,24.385,2.429,21.93,1.998z M28,12H16v6h14v-4 C30,12.895,29.105,12,28,12z"></path></svg>