<svg xmlns="http://www.w3.org/2000/svg" viewBox="0 0 24 24" width="24" height="24"><path d="M9.6 10.6H1.3c-.7 0-1.3-.5-1.3-1.2V1.3C0 .6.6 0 1.3 0h8.3c.7 0 1.3.6 1.3 1.3v8.1c-.1.7-.6 1.2-1.3 1.2zM22.7 10.6h-8.3c-.7 0-1.3-.6-1.3-1.3v-8c0-.7.6-1.3 1.3-1.3h8.3c.7 0 1.3.6 1.3 1.3v8.1c0 .7-.6 1.2-1.3 1.2zM9.6 24H1.3C.6 24 0 23.4 0 22.7v-8.1c0-.7.6-1.3 1.3-1.3h8.3c.7 0 1.3.6 1.3 1.3v8.1c-.1.7-.6 1.3-1.3 1.3zM22.7 24h-8.3c-.7 0-1.3-.6-1.3-1.3v-8.1c0-.7.6-1.3 1.3-1.3h8.3c.7 0 1.3.6 1.3 1.3v8.1c0 .7-.6 1.3-1.3 1.3z"/></svg>