<svg xmlns="http://www.w3.org/2000/svg" width="24" height="24" viewBox="0 0 32 32"><path d="M16.753,0.86C16.563,0.643,16.288,0.519,16,0.519c-0.288,0-0.563,0.125-0.753,0.341L2,16h0v14 c0,1.105,0.895,2,2,2h14v-9c0-0.552,0.448-1,1-1h4c0.552,0,1,0.448,1,1v9h4c1.105,0,2-0.895,2-2V16h0L16.753,0.86z M16,1.519 L28.671,16H3.329L16,1.519z M29,30c0,0.551-0.449,1-1,1h-3v-8c0-1.103-0.897-2-2-2h-4c-1.103,0-2,0.897-2,2v8H4 c-0.551,0-1-0.449-1-1l0-13h26V30z M7,28h5c0.552,0,1-0.448,1-1v-5c0-0.552-0.448-1-1-1H7c-0.552,0-1,0.448-1,1v5 C6,27.552,6.448,28,7,28z M12,22l0,5l-5,0l0-5H12z"></path></svg>