<svg xmlns="http://www.w3.org/2000/svg" width="24" height="24" viewBox="0 0 32 32"><path d="M14,11.5v-1c0-0.276,0.224-0.5,0.5-0.5h1c0.276,0,0.5,0.224,0.5,0.5v1c0,0.276-0.224,0.5-0.5,0.5h-1 C14.224,12,14,11.776,14,11.5z M17.5,22H16v-7.5c0-0.276-0.224-0.5-0.5-0.5h-3c-0.276,0-0.5,0.224-0.5,0.5v1 c0,0.276,0.224,0.5,0.5,0.5H14v6h-1.5c-0.276,0-0.5,0.224-0.5,0.5v1c0,0.276,0.224,0.5,0.5,0.5h5c0.276,0,0.5-0.224,0.5-0.5v-1 C18,22.224,17.776,22,17.5,22z M29.414,10.414C29.789,10.789,30,11.298,30,11.828v10.343c0,0.53-0.211,1.039-0.586,1.414 l-7.828,7.828C21.211,31.789,20.702,32,20.172,32H9.828c-0.53,0-1.039-0.211-1.414-0.586l-7.828-7.828 C0.211,23.211,0,22.702,0,22.172V11.828c0-0.53,0.211-1.039,0.586-1.414l7.828-7.828C8.789,2.211,9.298,2,9.828,2h10.343 c0.53,0,1.039,0.211,1.414,0.586L29.414,10.414z M28,11.828L20.172,4H9.828L2,11.828v10.343L9.828,30h10.343L28,22.172V11.828z"></path></svg>