<svg xmlns="http://www.w3.org/2000/svg" width="24" height="24" viewBox="0 0 32 32"><path d="M24,0H8C3.582,0,0,3.582,0,8v4v12c0,4.418,3.582,8,8,8h16c4.418,0,8-3.582,8-8V12V8C32,3.582,28.418,0,24,0z  M2,8c0-3.308,2.691-6,6-6h16c3.309,0,6,2.692,6,6v2h-8.759C19.834,8.77,18.015,8,16,8s-3.834,0.77-5.241,2H2V8z M22,16 c0,3.308-2.691,6-6,6s-6-2.692-6-6c0-1.542,0.602-2.936,1.561-4c1.099-1.219,2.673-2,4.439-2s3.341,0.781,4.439,2 C21.398,13.064,22,14.458,22,16z M30,24c0,3.308-2.691,6-6,6H8c-3.309,0-6-2.692-6-6V12h7.109C8.422,13.181,8,14.535,8,16 c0,4.418,3.582,8,8,8s8-3.582,8-8c0-1.465-0.422-2.819-1.109-4H30V24z M26,7c0,0.552-0.448,1-1,1h-2c-0.552,0-1-0.448-1-1V5 c0-0.552,0.448-1,1-1h2c0.552,0,1,0.448,1,1V7z"></path></svg>