<svg xmlns="http://www.w3.org/2000/svg" viewBox="0 0 24 24" width="24" height="24"><path d="M3.4 5.1H.9c-.5 0-.9-.4-.9-.9V1.8c0-.5.4-.8.9-.8h2.5c.5 0 .9.4.9.9v2.4c-.1.4-.5.8-.9.8zM23.1 5.1H7.2c-.5 0-.9-.4-.9-.9V1.9c0-.5.4-.9.9-.9h15.9c.5 0 .9.4.9.9v2.3c0 .5-.4.9-.9.9zM3.4 14H.9c-.5 0-.9-.3-.9-.8v-2.4c0-.5.4-.9.9-.9h2.5c.5 0 .9.4.9.9v2.4c-.1.5-.5.8-.9.8zM23.1 14H7.2c-.5 0-.9-.4-.9-.9v-2.3c0-.5.4-.9.9-.9h15.9c.5 0 .9.4.9.9v2.3c0 .5-.4.9-.9.9zM3.4 23H.9c-.5 0-.9-.3-.9-.8v-2.4c0-.5.4-.9.9-.9h2.5c.5 0 .9.4.9.9v2.4c-.1.5-.5.8-.9.8zM23.1 23H7.2c-.5 0-.9-.4-.9-.9v-2.3c0-.5.4-.9.9-.9h15.9c.5 0 .9.4.9.9v2.3c0 .5-.4.9-.9.9z"/></svg>