<svg xmlns="http://www.w3.org/2000/svg" width="24" height="24" viewBox="0 0 32 32"><path d="M16,1c2.404,0,4.664,0.936,6.364,2.636C24.064,5.336,25,7.596,25,10c0,3.909-4.571,12.809-9,20.094 C11.571,22.809,7,13.909,7,10c0-2.404,0.936-4.664,2.636-6.364C11.336,1.936,13.596,1,16,1 M16,0c-2.761,0-5.261,1.119-7.071,2.929 C7.119,4.739,6,7.239,6,10c0,5.418,7.666,18.214,9.574,21.315c0.091,0.148,0.252,0.238,0.426,0.238c0,0,0,0,0,0 c0.173,0,0.335-0.09,0.426-0.238C18.333,28.215,26,15.418,26,10c0-2.761-1.119-5.261-2.929-7.071C21.261,1.119,18.761,0,16,0L16,0z  M16,7c1.654,0,3,1.346,3,3s-1.346,3-3,3s-3-1.346-3-3S14.346,7,16,7 M16,6c-2.209,0-4,1.791-4,4s1.791,4,4,4c2.209,0,4-1.791,4-4 S18.209,6,16,6L16,6z"></path></svg>