<svg xmlns="http://www.w3.org/2000/svg" viewBox="0 0 90.1 24" height="24" width="90"><g transform="scale(.1)"><path d="M108.1 0H38c-4.8 0-8.9 3.5-9.6 8.2L.1 187.9c-.6 3.5 2.2 6.7 5.8 6.7h33.4c4.8 0 8.9-3.5 9.6-8.2l7.6-48.4c.7-4.7 4.8-8.2 9.6-8.2h22.2c46.1 0 72.8-22.3 79.7-66.6 3.1-19.4.1-34.6-8.9-45.2-9.9-11.8-27.6-18-51-18zm8.1 65.6c-3.8 25.1-23 25.1-41.6 25.1H64l7.4-46.9c.4-2.8 2.9-4.9 5.8-4.9H82c12.7 0 24.6 0 30.8 7.2 3.6 4.3 4.8 10.7 3.4 19.5"/><path d="M317.5 64.8H284c-2.9 0-5.3 2.1-5.8 4.9l-1.5 9.4-2.3-3.4c-7.3-10.5-23.5-14.1-39.6-14.1-37.1 0-68.7 28.1-74.9 67.5-3.2 19.6 1.4 38.4 12.5 51.5 10.2 12 24.8 17.1 42.3 17.1 29.9 0 46.4-19.2 46.4-19.2l-1.5 9.3c-.6 3.6 2.2 6.8 5.8 6.8h30.2c4.8 0 8.9-3.5 9.6-8.2l18.1-114.8c.5-3.6-2.2-6.8-5.8-6.8zm-46.8 65.3c-3.2 19.2-18.4 32-37.8 32-9.7 0-17.5-3.1-22.5-9s-6.8-14.2-5.3-23.6c3-19 18.5-32.3 37.6-32.3 9.5 0 17.3 3.2 22.4 9.1 5.1 6.1 7.1 14.5 5.6 23.8"/><path d="M496.1 64.8h-33.7c-3.2 0-6.2 1.6-8.1 4.3l-46.5 68.5-19.7-65.8c-1.2-4.1-5-6.9-9.3-6.9h-33.1c-4 0-6.8 3.9-5.5 7.7l37.1 109-34.9 49.3c-2.7 3.9 0 9.2 4.8 9.2h33.7c3.2 0 6.2-1.6 8-4.2L500.9 74c2.7-3.9 0-9.2-4.8-9.2"/><path fill="#009cde" d="M607.8 0h-70.1c-4.8 0-8.9 3.5-9.6 8.2l-28.3 179.6c-.6 3.5 2.2 6.7 5.8 6.7h36c3.3 0 6.2-2.4 6.7-5.8l8-50.9c.7-4.7 4.8-8.2 9.6-8.2H588c46.2 0 72.8-22.3 79.7-66.6 3.1-19.4.1-34.6-8.9-45.2-10-11.6-27.6-17.8-51-17.8zm8 65.6c-3.8 25.1-23 25.1-41.6 25.1h-10.6l7.4-46.9c.4-2.8 2.9-4.9 5.8-4.9h4.8c12.6 0 24.6 0 30.7 7.2 3.8 4.3 4.9 10.7 3.5 19.5"/><path fill="#009cde" d="M817.1 64.8h-33.5c-2.9 0-5.3 2.1-5.8 4.9l-1.5 9.4-2.4-3.4c-7.3-10.5-23.4-14.1-39.6-14.1-37.1 0-68.7 28.1-74.9 67.5-3.2 19.6 1.3 38.4 12.5 51.5 10.2 12 24.8 17.1 42.3 17.1 29.9 0 46.4-19.2 46.4-19.2l-1.5 9.3c-.6 3.6 2.2 6.8 5.8 6.8h30.2c4.8 0 8.9-3.5 9.6-8.2l18.1-114.8c.7-3.6-2.1-6.8-5.7-6.8zm-46.7 65.3c-3.2 19.2-18.4 32-37.8 32-9.7 0-17.5-3.1-22.5-9s-6.8-14.2-5.3-23.6c3-19 18.5-32.3 37.6-32.3 9.5 0 17.3 3.2 22.4 9.1 5 6.1 7.1 14.5 5.6 23.8"/><path fill="#009cde" d="M856.7 4.9l-28.8 182.9c-.6 3.5 2.2 6.7 5.8 6.7h28.9c4.8 0 8.9-3.5 9.6-8.2L900.6 6.8c.6-3.5-2.2-6.8-5.8-6.8h-32.4c-2.8 0-5.3 2.1-5.7 4.9"/></g></svg>