<svg xmlns="http://www.w3.org/2000/svg" viewBox="0 0 24 24" width="24" height="24"><path d="M23.6 19.3l-5.1-3.4c-.1-.1-.3-.1-.5-.1-.3 0-.5.1-.7.3 0 0-1.1 1.4-1.5 1.9-.4.4-.9.6-1.8.2-.6-.3-2.2-1.2-4.6-3.6C7 12.2 5.6 9.7 5.6 9.7c-.3-.5-.1-1.2.4-1.5l1.9-1.5c.4-.3.4-.8.2-1.2L6.5 3.2 4.7.4C4.5.1 4.2 0 3.9 0c-.1 0-.3 0-.4.1L1.3 1.4c-.5.3-.9.8-1.1 1.4-.4 1.7-.2 3.5.6 5.6C1.8 11 3.9 13.9 7 17c2.5 2.5 4.9 4.4 7.2 5.6 1.8 1 3.6 1.4 5.1 1.4.6 0 1.1 0 1.7-.2.6-.2 1.3-.6 1.6-1.1l1.3-2.1c.2-.5.1-1-.3-1.3z"/></svg>