<svg xmlns="http://www.w3.org/2000/svg" width="24" height="24" viewBox="0 0 32 32"><path d="M28,25v6c0,0.552-0.448,1-1,1H3c-0.552,0-1-0.448-1-1v-6c0-0.552,0.448-1,1-1s1,0.448,1,1v5h22v-5 c0-0.552,0.448-1,1-1S28,24.448,28,25z M15,2c-0.552,0-1,0.448-1,1v13H9.537c-0.298,0-0.572,0.166-0.71,0.431 s-0.117,0.584,0.054,0.828l5.463,7.805c0.15,0.214,0.394,0.341,0.655,0.341s0.506-0.127,0.655-0.341l5.463-7.805 c0.171-0.244,0.192-0.564,0.054-0.828S20.762,16,20.464,16H16V3C16,2.448,15.552,2,15,2z"></path></svg>