<svg xmlns="http://www.w3.org/2000/svg" width="24" height="24" viewBox="0 0 32 32"><path d="M0,4l0,2l0,6l0,8c0,2.209,1.791,4,4,4h7.5c0.276,0,0.5-0.224,0.5-0.5v-1c0-0.276-0.224-0.5-0.5-0.5H4 c-1.103,0-2-0.897-2-2v-8h28v5.5c0,0.276,0.224,0.5,0.5,0.5h1c0.276,0,0.5-0.224,0.5-0.5V12V6V4c0-2.209-1.791-4-4-4L4,0 C1.791,0,0,1.791,0,4z M2,4c0-1.103,0.897-2,2-2h24c1.103,0,2,0.897,2,2v2H2V4z M16,23v8c0,0.552,0.448,1,1,1h12 c0.552,0,1-0.448,1-1v-8c0-0.552-0.448-1-1-1h-1v-1c0-2.761-2.239-5-5-5c-2.761,0-5,2.239-5,5v1h-1C16.448,22,16,22.448,16,23z  M22,25.5c0-0.276,0.224-0.5,0.5-0.5h1c0.276,0,0.5,0.224,0.5,0.5v3c0,0.276-0.224,0.5-0.5,0.5h-1c-0.276,0-0.5-0.224-0.5-0.5V25.5z  M20,21c0-1.654,1.346-3,3-3s3,1.346,3,3v1h-6V21z"></path></svg>