<svg xmlns="http://www.w3.org/2000/svg" viewBox="0 0 87.824 24" width="88" height="24"><path d="M19.512 7.656h-6.009a3.865 3.865 0 00-.346-1.985q-.537-.748-2.96-.748a7.315 7.315 0 00-3.117.43q-.76.433-.76 1.88a1.873 1.873 0 00.675 1.726 2.808 2.808 0 001.281.345l1.212.086q3.896.259 4.866.363a7.43 7.43 0 014.467 1.638A4.341 4.341 0 0120.12 14.1a18.956 18.956 0 01.121 2.26 11.953 11.953 0 01-.554 4.243q-1.003 2.468-4.51 3.121a26.522 26.522 0 01-4.495.277 27.694 27.694 0 01-7.035-.603A4.589 4.589 0 01.432 20.4 14.223 14.223 0 010 16.214h6.009v.5q0 1.563.898 2.01a3.522 3.522 0 001.503.327h2.209a7.984 7.984 0 002.157-.174 1.757 1.757 0 001.088-1.05 4.005 4.005 0 00.138-1.156q0-1.585-1.156-1.93a36.065 36.065 0 00-4.02-.379q-2.881-.205-4.002-.397-2.95-.551-3.932-2.273a8.94 8.94 0 01-.863-4.43 11.466 11.466 0 01.466-3.618A3.962 3.962 0 012 1.575 7.615 7.615 0 015.886.3q1.97-.172 4.371-.173a23.367 23.367 0 015.391.433q3.923 1.053 3.922 5.904 0 .398-.058 1.192zM45.937 24V0h12.035a13.446 13.446 0 013.775.404 5.864 5.864 0 013.988 3.81 14.722 14.722 0 01.526 4.547 16.928 16.928 0 01-.58 5.25 5.406 5.406 0 01-4.76 3.634q-.423.07-3.601.123l-1.072.036h-3.851V24zm6.46-11.764h4.026a7.196 7.196 0 002.333-.298 1.725 1.725 0 00.765-1.26 10.594 10.594 0 00.123-1.872 7.714 7.714 0 00-.244-2.259 1.928 1.928 0 00-1.67-1.26q-.262-.034-1.252-.035h-4.081zM80.05 19.852h-8.637L70.253 24H63.57l7.21-24h9.745l7.299 24h-6.542zm-1.283-4.675L75.74 4.773l-2.937 10.404z"/><path d="M37.022 3.377a8.492 8.492 0 016.605 3.15l1.392-2.986a12.238 12.238 0 00-19.64 4.098h-2.716l-1.603 3.437h3.493c-.026.318-.043.638-.043.963a11.57 11.57 0 00.06 1.168h-1.756l-1.603 3.438h4.25a12.112 12.112 0 0011.148 7.218 12.239 12.239 0 006.807-2.048v-4.213a8.498 8.498 0 01-13.515-.957h8.9l1.604-3.438H28.59a8.71 8.71 0 01-.094-1.267c0-.291.015-.58.044-.864h12.857l1.603-3.437H29.652a8.512 8.512 0 017.37-4.262z" fill="#fdc300"/><path d="M37.022 3.48a8.38 8.38 0 016.525 3.112l.103.128.07-.15 1.393-2.985.03-.068-.053-.052A12.412 12.412 0 0029.697 2.21a11.974 11.974 0 00-4.413 5.39l.095-.064h-2.782l-.027.06-1.603 3.437-.068.147h3.654l-.103-.112a11.517 11.517 0 00.016 2.15l.103-.113h-1.82l-.028.06-1.603 3.437-.068.147h4.412l-.095-.062a12.197 12.197 0 0011.242 7.28 12.332 12.332 0 006.864-2.066l.046-.03v-4.543l-.18.206a8.396 8.396 0 01-13.352-.946l-.086.16h8.967l.027-.059 1.604-3.438.068-.146H28.591l.102.087a8.646 8.646 0 01-.092-1.252c0-.282.014-.57.042-.854l-.103.094h12.925l.027-.06 1.603-3.437.069-.147H29.652l.089.155a8.449 8.449 0 017.281-4.211zm-7.37 4.262h13.349l-.094-.146-1.602 3.437.093-.06h-12.95l-.01.094a8.91 8.91 0 00-.044.873 8.846 8.846 0 00.095 1.283l.013.088h11.903l-.093-.147-1.603 3.438.092-.06H29.71l.105.16a8.603 8.603 0 0013.68.968l-.18-.068v4.213l.045-.085a12.133 12.133 0 01-6.75 2.03 11.988 11.988 0 01-11.052-7.157l-.027-.062H21.21l.094.148 1.603-3.439-.094.06h1.87l-.012-.114a11.772 11.772 0 01-.06-1.157c0-.291.015-.604.044-.955l.009-.111H21.06l.093.147 1.603-3.438-.093.06h2.785l.026-.064a11.777 11.777 0 014.339-5.298 12.207 12.207 0 0115.135 1.235l-.023-.118-1.391 2.986.173-.022a8.605 8.605 0 00-14.145 1.126l-.09.155z"/></svg>