<svg xmlns="http://www.w3.org/2000/svg" viewBox="0 0 33.628 24" width="34" height="24"><path d="M28.091 21.476h-.94v-1.202H25.48V9.818h1.015a.656.656 0 00.656-.656v-.546h.454a.836.836 0 00.46-1.535L17.817.333a2.02 2.02 0 00-2.222 0L5.347 7.08a.836.836 0 00.46 1.535h.67v.546a.656.656 0 00.657.656h.798v10.456H6.478v1.202H5.35a.382.382 0 00-.382.381v1.762A.381.381 0 005.35 24h22.741a.381.381 0 00.382-.381v-1.762a.382.382 0 00-.382-.38z"/><path d="M0 14.925l3.158 3.753v-2.386h3.32V13.57h-3.32v-2.398L0 14.925zM33.628 14.866l-3.158-3.753v2.386h-3.319v2.722h3.319v2.398l3.158-3.753z"/><path d="M17.298 8.616c.425 0 .562.136.562.546v.622a3.332 3.332 0 012.609 1.972c.227.425.121.652-.349.85l-1.047.47c-.41.181-.607.12-.834-.304a1.479 1.479 0 00-1.532-.88c-1.077 0-1.532.228-1.532.88 0 .561.637.774 1.805.895a10.552 10.552 0 011.73.288 2.954 2.954 0 01.818.349 2.63 2.63 0 011.275 2.503c0 1.623-1.062 2.746-2.943 3.095v.652c0 .425-.137.561-.562.561h-1.152c-.41 0-.562-.136-.562-.561v-.622a3.418 3.418 0 01-2.928-2.215.58.58 0 01.41-.819l1.032-.364c.44-.167.652-.076.85.364a1.583 1.583 0 001.669.925c1.153 0 1.73-.318 1.73-.97 0-.607-.593-.804-1.79-.926a7.16 7.16 0 01-2.064-.455 2.64 2.64 0 01-.94-.53 2.883 2.883 0 01-.865-2.17c0-1.593 1.016-2.685 2.897-2.989v-.621c0-.41.152-.546.561-.546z" fill="#fff"/></svg>