<svg xmlns="http://www.w3.org/2000/svg" width="24" height="24" viewBox="0 0 24 24"><path d="M5.9 20.1c-.6 0-1.1.4-1.3.9-.1.2-.1.3-.1.5 0 .8.6 1.4 1.4 1.4.8 0 1.4-.6 1.4-1.4 0-.2 0-.4-.1-.5-.2-.6-.7-.9-1.3-.9zM18.2 20.1c-.6 0-1.1.4-1.3.9-.1.2-.1.3-.1.5 0 .8.6 1.4 1.4 1.4.8 0 1.4-.6 1.4-1.4 0-.2 0-.4-.1-.5-.2-.6-.7-.9-1.3-.9z"/><path d="M0 16.9v2.9c0 .6.5 1.2 1.2 1.2h1.7c.2-1.4 1.5-2.5 2.9-2.5 1.5 0 2.7 1.1 2.9 2.5h6.4c.2-1.4 1.5-2.5 2.9-2.5 1.5 0 2.7 1.1 2.9 2.5h1.7c.7 0 1.2-.5 1.2-1.2v-2.9H0zM24 16.4v-.6c0-.6-.2-1.2-.7-1.6 0 0-2.8-2.8-4.4-4.2-.5-.5-1.2-.8-2-.8h-1.6v-1c0-.6-.5-1.2-1.2-1.2h-13C.5 7 0 7.5 0 8.2v8.2h24zm-7.4-5.5c0-.2.1-.3.3-.3h.6c.4 0 .8.1 1.1.4.9.8 3.1 2.9 3.1 3.2 0 .2-.1.3-.3.3H17c-.2 0-.3-.1-.3-.3v-3.3z"/><path d="M18.2 19c-1.2 0-2.2.8-2.4 2 0 .2-.1.3-.1.5 0 1.4 1.1 2.5 2.5 2.5s2.5-1.1 2.5-2.5c0-.2 0-.4-.1-.5-.2-1.2-1.2-2-2.4-2zm0 3.9c-.8 0-1.4-.6-1.4-1.4 0-.2 0-.4.1-.5.2-.5.7-.9 1.3-.9.6 0 1.1.4 1.3.9.1.2.1.3.1.5 0 .8-.7 1.4-1.4 1.4zM5.9 19c-1.2 0-2.2.8-2.4 2 0 .2-.1.3-.1.5 0 1.4 1.1 2.5 2.5 2.5s2.5-1.1 2.5-2.5c0-.2 0-.4-.1-.5-.2-1.2-1.2-2-2.4-2zm0 3.9c-.8 0-1.4-.6-1.4-1.4 0-.2 0-.4.1-.5.2-.5.7-.9 1.3-.9.6 0 1.1.4 1.3.9.1.2.1.3.1.5 0 .8-.6 1.4-1.4 1.4z"/></svg>