<svg xmlns="http://www.w3.org/2000/svg" viewBox="0 0 58.22 24" height="24" width="58"><defs><clipPath id="a" transform="translate(-.22)"><path fill="none" d="M-218.88-113.03h1114v500h-1114z"/></clipPath></defs><g clip-path="url(#a)"><path d="M22.42 22.47a3.6 3.6 0 001.54.38c.64 0 1-.26 1-.66s-.29-.61-1-.87c-1-.36-1.69-.92-1.69-1.81 0-1.05.88-1.85 2.33-1.85a3.71 3.71 0 011.57.31l-.39 1.12a3 3 0 00-1.29-.29c-.6 0-.89.27-.89.59s.34.56 1.14.86c1.08.41 1.59 1 1.59 1.84 0 1-.79 1.9-2.48 1.9a4.06 4.06 0 01-1.74-.37zM28.51 17.76v2.36h2.29v-2.36h1.39v6.14H30.8v-2.57h-2.29v2.57h-1.39v-6.14h1.39zM38.89 20.76a2.93 2.93 0 01-3 3.24A2.87 2.87 0 0133 20.87a3 3 0 013-3.21 2.86 2.86 0 012.92 3.1m-4.44.09c0 1.2.56 2 1.49 2s1.48-.9 1.48-2.09-.53-2-1.49-2-1.48.89-1.48 2.09M39.67 17.84a11.67 11.67 0 011.88-.13 3 3 0 011.88.49 1.81 1.81 0 01.66 1.43 2 2 0 01-.57 1.45 2.84 2.84 0 01-2 .65 3.18 3.18 0 01-.47 0v2.2h-1.38zm1.38 2.79a2 2 0 00.46 0c.74 0 1.2-.37 1.2-1s-.39-.9-1.09-.9a2.9 2.9 0 00-.57 0zM44.78 22.47a3.56 3.56 0 001.54.38c.64 0 1-.26 1-.66s-.29-.61-1-.87c-1-.36-1.68-.92-1.68-1.81 0-1.05.87-1.85 2.32-1.85a3.64 3.64 0 011.57.31l-.31 1.12a2.9 2.9 0 00-1.28-.29c-.61 0-.9.27-.9.59s.35.56 1.14.86c1.09.41 1.6 1 1.6 1.84 0 1-.8 1.9-2.48 1.9a4 4 0 01-1.74-.37zM23.55 11.32h-1.66v-1.18h4.75v1.18h-1.69v5h-1.4v-5zM27.17 10.23a11.28 11.28 0 011.86-.13 3.13 3.13 0 012 .49 1.55 1.55 0 01.57 1.29 1.65 1.65 0 01-1.09 1.52 1.55 1.55 0 01.83 1.15 17.62 17.62 0 00.5 1.74H30.4a7.49 7.49 0 01-.43-1.44c-.17-.77-.43-1-1-1h-.42v2.43h-1.38zm1.38 2.66h.55c.7 0 1.11-.35 1.11-.89s-.39-.86-1-.87a3.16 3.16 0 00-.63 0zM33.78 10.15v3.55c0 1.06.4 1.6 1.12 1.6s1.13-.51 1.13-1.6v-3.55h1.4v3.46c0 1.9-1 2.81-2.58 2.81s-2.47-.86-2.47-2.83v-3.44zM38.44 14.88a3.64 3.64 0 001.55.39c.64 0 1-.27 1-.67s-.29-.61-1-.87c-1-.36-1.7-.93-1.7-1.83 0-1.05.88-1.86 2.34-1.86a3.66 3.66 0 011.57.32l-.31 1.12a2.87 2.87 0 00-1.29-.29c-.6 0-.9.27-.9.6s.35.56 1.15.87c1.09.4 1.6 1 1.6 1.84 0 1-.8 1.91-2.49 1.91a4.08 4.08 0 01-1.8-.41zM44.33 11.32h-1.65v-1.18h4.74v1.18h-1.68v5h-1.41v-5zM51.63 13.71h-2.28v1.47h2.54v1.14h-3.94v-6.18h3.81v1.15h-2.41v1.28h2.28v1.14zM52.78 10.23a12.73 12.73 0 011.89-.13 4 4 0 012.53.66 2.74 2.74 0 011 2.33 3.13 3.13 0 01-1 2.5 4.44 4.44 0 01-2.85.8 11.07 11.07 0 01-1.58-.1zm1.4 5a3.55 3.55 0 00.49 0 1.91 1.91 0 002.11-2.1 1.78 1.78 0 00-2-2 2.66 2.66 0 00-.63.06zM10.04 0a10 10 0 1010 10 10 10 0 00-10-10m-.09 16.33A6.33 6.33 0 1116.28 10a6.32 6.32 0 01-6.33 6.33"/><path d="M12.7 12c-.92 1.36-2.2 2.6-3.92 2.6a2.7 2.7 0 01-2.88-3c0-3 2.2-5.9 5.3-5.9 1 0 2.44.42 2.44 1.68 0 2.26-3.54 3-5.28 3.46A7.35 7.35 0 008.24 12a1.33 1.33 0 001.28 1.5c1.12 0 2-1.08 2.68-1.88zm-.92-4.87a.74.74 0 00-.74-.82c-1.44 0-2.18 2.8-2.46 3.9 1.34-.4 3.2-1.5 3.2-3.08"/></g></svg>