<svg xmlns="http://www.w3.org/2000/svg" viewBox="0 0 74.3 24" height="24" width="74"><path d="M10.4.4H.1l-.1.7c2.1.5 4.5 1.2 5.9 2 .9.5 1.1.9 1.4 2l4.8 18.5h6.3L28.1.4h-6.3l-6.2 15.8-2.5-13.4C12.8 1.3 11.7.4 10.4.4zM36.8.4h-6l-5 23.2h6z"/><path fill="none" d="M62.1 15.4H67l-1.8-8.7z"/><path d="M69.5.4h-5.1c-1.2 0-2.1.7-2.6 1.7l-9 21.5h6.3l1.3-3.5H68l.7 3.5h5.6L69.5.4zm-7.4 15l3.2-8.7 1.8 8.7h-5zM53.1 16.1c0-6.1-8.5-6.5-8.4-9.2 0-.8.8-1.7 2.5-1.9.9-.1 3.2-.2 5.9 1l1.1-5c-1.4-.5-3.3-1-5.6-1-5.9 0-10.1 3.2-10.1 7.7 0 3.3 3 5.2 5.3 6.3 2.3 1.1 3.1 1.9 3.1 2.9 0 1.6-1.9 2.2-3.6 2.3-3 0-4.8-.8-6.2-1.5L36 22.8c1.4.6 4 1.2 6.7 1.2 6.2 0 10.4-3.1 10.4-7.9z"/></svg>